<?xml version="1.0" standalone="no"?>
<!DOCTYPE svg PUBLIC "-//W3C//DTD SVG 20010904//EN"
 "http://www.w3.org/TR/2001/REC-SVG-20010904/DTD/svg10.dtd">
<svg version="1.0" xmlns="http://www.w3.org/2000/svg"
 width="1000.000000pt" height="1000.000000pt" viewBox="0 0 1000.000000 1000.000000"
 preserveAspectRatio="xMidYMid meet">

<g transform="translate(0.000000,1000.000000) scale(0.100000,-0.100000)"
fill="#000000" stroke="none">
<path d="M3960 9066 c-73 -23 -115 -76 -125 -161 -3 -27 -21 -274 -40 -549
-19 -274 -36 -500 -39 -503 -2 -3 -310 113 -683 257 -373 144 -694 264 -714
267 -80 12 -170 -54 -183 -134 -10 -57 9 -103 117 -275 52 -84 280 -452 507
-818 227 -366 422 -676 434 -688 11 -13 33 -30 48 -38 35 -18 111 -18 148 1
63 32 99 115 80 183 -5 21 -181 314 -390 652 -209 337 -378 615 -376 617 3 3
251 -91 553 -208 467 -181 556 -212 603 -213 97 -1 162 61 175 169 3 28 19
238 34 468 16 230 31 420 33 422 2 2 167 -175 367 -393 199 -218 380 -411 402
-429 47 -37 101 -49 160 -33 39 10 90 58 457 423 l414 412 -8 -470 c-7 -466
-7 -471 14 -512 30 -58 82 -88 152 -87 48 1 126 30 580 213 289 117 536 217
549 222 l24 10 -18 -28 c-10 -16 -198 -301 -417 -635 -219 -334 -405 -623
-413 -642 -32 -77 -3 -162 70 -203 67 -38 142 -25 197 33 23 25 1112 1675
1140 1729 68 125 -35 275 -170 250 -19 -4 -336 -128 -705 -276 -368 -149 -671
-268 -673 -266 -2 2 1 170 6 373 5 203 10 451 10 552 0 165 -2 187 -20 223
-36 69 -111 100 -191 79 -40 -10 -95 -62 -545 -511 l-501 -500 -89 98 c-527
577 -813 882 -843 899 -47 28 -88 34 -131 20z"/>
<path d="M4815 6770 c-269 -19 -513 -87 -770 -215 -805 -399 -1402 -1269
-1546 -2254 -48 -325 -41 -873 17 -1336 136 -1093 550 -1754 1281 -2044 254
-100 526 -152 898 -170 431 -22 855 27 1175 135 470 159 848 492 1078 951 242
480 363 1124 364 1933 1 297 -10 444 -48 670 -139 825 -588 1531 -1249 1966
-306 201 -658 335 -940 359 -140 11 -162 12 -260 5z m340 -350 c140 -27 281
-77 440 -154 638 -312 1118 -927 1301 -1671 70 -286 78 -372 79 -830 0 -502
-22 -764 -95 -1105 -187 -879 -611 -1364 -1330 -1521 -191 -41 -290 -51 -583
-56 -318 -6 -470 4 -686 43 -759 139 -1191 618 -1380 1526 -65 314 -91 582
-98 1023 -6 383 3 507 52 750 190 939 873 1743 1665 1962 208 57 445 69 635
33z"/>
<path d="M3804 5420 c-17 -6 -49 -27 -70 -48 -85 -83 -480 -525 -496 -555 -24
-44 -23 -124 2 -165 46 -75 150 -96 225 -46 22 15 119 113 215 220 96 107 178
194 182 194 4 0 91 -89 193 -197 103 -109 205 -209 227 -222 50 -30 118 -33
168 -6 19 10 126 107 237 217 112 109 208 198 213 198 6 0 99 -87 208 -194
108 -106 213 -201 232 -211 50 -27 118 -24 168 6 22 13 122 111 222 217 99
105 185 192 189 192 5 0 93 -92 197 -205 196 -213 236 -245 305 -245 78 1 158
82 159 161 0 20 -10 54 -22 77 -13 23 -135 163 -273 312 -259 280 -295 310
-367 310 -63 0 -112 -39 -309 -248 l-191 -203 -27 23 c-14 12 -107 102 -206
200 -284 279 -286 279 -575 -5 -102 -100 -197 -193 -211 -205 l-26 -23 -198
208 c-108 114 -209 216 -224 225 -34 22 -106 30 -147 18z"/>
<path d="M3804 4230 c-17 -6 -49 -27 -70 -48 -85 -83 -480 -525 -496 -555 -24
-44 -23 -124 2 -165 46 -75 150 -96 225 -46 22 15 119 113 215 220 96 107 178
194 182 194 4 0 91 -89 193 -197 103 -109 205 -209 227 -222 50 -30 118 -33
168 -6 19 10 126 107 237 217 112 109 208 198 213 198 6 0 99 -87 208 -194
108 -106 213 -201 232 -211 50 -27 118 -24 168 6 22 13 122 111 222 217 99
105 185 192 189 192 5 0 93 -92 197 -205 196 -213 236 -245 305 -245 78 1 158
82 159 161 0 20 -10 54 -22 77 -37 66 -516 579 -564 602 -53 26 -101 25 -152
-2 -23 -13 -124 -112 -233 -226 l-192 -203 -26 23 c-14 12 -107 102 -206 200
-284 279 -286 279 -575 -5 -102 -100 -197 -193 -211 -205 l-26 -23 -198 208
c-108 114 -209 216 -224 225 -34 22 -106 30 -147 18z"/>
<path d="M3804 3000 c-17 -6 -49 -27 -70 -48 -85 -83 -480 -525 -496 -555 -24
-44 -23 -124 2 -165 46 -75 150 -96 225 -46 22 15 119 113 215 220 96 107 178
194 182 194 4 0 91 -89 193 -197 103 -109 205 -209 227 -222 50 -30 118 -33
168 -6 19 10 126 107 237 216 111 110 206 199 213 199 6 0 99 -87 208 -194
108 -106 213 -201 232 -211 50 -27 118 -24 168 6 22 13 122 111 222 217 99
105 185 192 189 192 5 0 93 -92 197 -205 196 -213 236 -245 305 -245 78 1 158
82 159 161 0 20 -10 54 -22 77 -13 23 -135 163 -273 312 -259 280 -295 310
-367 310 -63 0 -112 -39 -309 -248 l-191 -203 -27 23 c-14 12 -107 102 -206
200 -284 279 -286 279 -575 -5 -102 -100 -197 -193 -211 -205 l-26 -23 -198
208 c-108 114 -209 216 -224 225 -34 22 -106 30 -147 18z"/>
</g>
</svg>
